<?xml version="1.0" standalone="no"?>
<!DOCTYPE svg PUBLIC "-//W3C//DTD SVG 20010904//EN"
 "http://www.w3.org/TR/2001/REC-SVG-20010904/DTD/svg10.dtd">
<svg version="1.0" xmlns="http://www.w3.org/2000/svg"
 width="2000.000000pt" height="1600.000000pt" viewBox="0 0 2000.000000 1600.000000"
 preserveAspectRatio="xMidYMid meet">

<g transform="translate(0.000000,1600.000000) scale(0.100000,-0.100000)"
fill="#000000" stroke="none">
<path d="M6870 13333 c-77 -5 -295 -39 -425 -67 -126 -26 -393 -110 -482 -151
-17 -8 -33 -15 -36 -15 -13 0 -210 -98 -297 -148 -411 -234 -739 -536 -1011
-930 -38 -55 -69 -104 -69 -108 0 -4 -7 -15 -15 -24 -23 -26 -199 -377 -223
-446 -11 -32 -34 -97 -51 -142 -41 -114 -95 -338 -123 -507 -21 -127 -23 -173
-23 -485 0 -303 3 -365 23 -510 53 -389 149 -773 272 -1095 10 -27 31 -81 45
-120 14 -38 30 -79 35 -90 5 -11 23 -54 40 -95 119 -281 335 -699 499 -963 51
-84 355 -543 378 -572 5 -5 39 -53 77 -105 38 -52 88 -118 110 -146 23 -28 50
-64 61 -80 23 -31 186 -236 194 -244 4 -3 39 -45 80 -95 41 -49 79 -94 85
-100 6 -5 51 -57 100 -115 198 -232 401 -448 782 -834 6 -6 56 -53 110 -105
55 -52 140 -134 189 -181 50 -48 196 -180 325 -295 129 -115 237 -211 240
-214 3 -3 46 -40 95 -81 50 -41 104 -86 120 -101 64 -59 454 -375 567 -461 47
-37 94 -74 105 -82 22 -20 182 -142 276 -211 134 -99 182 -135 197 -148 8 -7
40 -30 70 -50 30 -21 80 -55 110 -78 30 -22 66 -47 80 -57 14 -9 30 -21 35
-25 21 -17 154 -110 240 -167 50 -33 95 -63 100 -67 17 -14 148 -99 188 -123
48 -28 93 -23 145 17 20 16 62 44 92 63 30 19 57 37 60 41 3 3 28 22 56 40
110 72 169 114 179 124 6 6 30 24 55 41 25 16 75 52 112 79 37 28 83 61 103
75 20 14 60 43 90 65 30 22 127 94 216 160 150 111 818 639 829 655 3 4 34 32
71 61 62 52 131 111 243 209 29 25 80 70 115 100 35 30 76 66 91 80 14 14 64
59 110 100 128 114 200 179 260 234 30 28 213 208 405 401 303 303 645 671
795 855 24 30 53 64 64 74 26 27 386 480 464 586 135 183 347 492 410 600 18
30 51 84 74 120 118 187 336 594 427 800 19 41 42 93 52 115 113 249 258 680
315 935 151 680 161 1215 33 1739 -126 512 -404 1005 -782 1383 -198 197 -414
365 -632 488 -70 40 -309 160 -318 160 -5 0 -23 7 -40 15 -129 60 -422 146
-597 175 -254 42 -289 45 -530 45 -236 0 -333 -8 -550 -45 -184 -32 -424 -103
-597 -176 -17 -8 -34 -14 -37 -14 -3 0 -53 -23 -112 -51 -605 -289 -1101 -775
-1402 -1374 -61 -121 -92 -192 -92 -209 0 -8 -4 -18 -10 -21 -5 -3 -17 -30
-26 -60 -8 -30 -19 -57 -24 -60 -4 -3 -11 -23 -15 -44 -4 -22 -13 -45 -21 -52
-20 -17 -60 12 -73 53 -21 70 -77 216 -104 273 -37 78 -112 224 -131 256 -113
195 -132 222 -282 414 -177 224 -470 488 -704 633 -41 26 -90 57 -108 69 -40
27 -292 151 -382 188 -111 46 -132 54 -220 80 -47 14 -114 35 -150 46 -36 10
-72 19 -80 19 -9 0 -43 7 -75 16 -182 47 -592 75 -845 57z"/>
</g>
</svg>
